<?xml version="1.0" encoding="UTF-8"?>
<svg width="417px" height="434px" viewBox="0 0 417 434" version="1.1" xmlns="http://www.w3.org/2000/svg" xmlns:xlink="http://www.w3.org/1999/xlink">
    <!-- Generator: Sketch 64 (93537) - https://sketch.com -->
    <title>bow-arch-jumbotron-image</title>
    <desc>Created with Sketch.</desc>
    <g id="bow-arch-jumbotron-image" stroke="none" stroke-width="1" fill="none" fill-rule="evenodd" stroke-linecap="round" stroke-linejoin="round">
        <g id="ilustration" transform="translate(3.000000, 3.000000)" stroke="#F9C95C" stroke-width="2">
            <polyline id="Path" fill-opacity="0" fill="#000000" points="90.068 108 159.348 148 228.632 108"></polyline>
            <polyline id="Path" fill-opacity="0" fill="#000000" points="159.348 68 297.912 148 367.196 108"></polyline>
            <line x1="297.912" y1="148" x2="297.912" y2="228" id="Path" fill-opacity="0" fill="#000000"></line>
            <polyline id="Path" fill-opacity="0" fill="#000000" points="297.912 228 159.348 308 228.632 348 367.196 268"></polyline>
            <line x1="159.348" y1="148" x2="159.348" y2="388" id="Path" fill-opacity="0" fill="#000000"></line>
            <line x1="228.632" y1="108" x2="228.632" y2="268" id="Path" fill-opacity="0" fill="#000000"></line>
            <line x1="228.632" y1="348" x2="228.632" y2="388" id="Path" fill-opacity="0" fill="#000000"></line>
            <polygon id="Path" fill-opacity="0" fill="#000000" points="90.068 108 90.068 348 159.348 388 159.348 148"></polygon>
            <polygon id="Path" fill-opacity="0.4" fill="#F9C95C" points="83.14 112 83.14 352 152.42 392 152.42 152"></polygon>
            <polygon id="Path" fill-opacity="0.4" fill="#F9C95C" points="166.276 152 166.276 176 221.704 144 221.704 120"></polygon>
            <polygon id="Path" fill="#FFFFFF" points="173.204 156 173.204 164 180.132 160 180.132 152"></polygon>
            <line x1="187.06" y1="156" x2="193.992" y2="152" id="Path" fill-opacity="0" fill="#000000"></line>
            <line x1="187.06" y1="148" x2="200.92" y2="140" id="Path" fill-opacity="0" fill="#000000"></line>
            <line x1="207.848" y1="152" x2="214.776" y2="148" id="Path" fill-opacity="0" fill="#000000"></line>
            <line x1="200.92" y1="148" x2="214.776" y2="140" id="Path" fill-opacity="0" fill="#000000"></line>
            <line x1="207.848" y1="136" x2="214.776" y2="132" id="Path" fill-opacity="0" fill="#000000"></line>
            <polygon id="Path" fill-opacity="0" fill="#000000" points="166.276 184 166.276 208 221.704 176 221.704 152"></polygon>
            <polygon id="Path" fill-opacity="0" fill="#000000" points="173.204 188 173.204 196 180.132 192 180.132 184"></polygon>
            <line x1="187.06" y1="180" x2="214.776" y2="164" id="Path" fill-opacity="0" fill="#000000"></line>
            <line x1="187.06" y1="188" x2="200.92" y2="180" id="Path" fill-opacity="0" fill="#000000"></line>
            <line x1="207.848" y1="176" x2="214.776" y2="172" id="Path" fill-opacity="0" fill="#000000"></line>
            <polygon id="Path" fill-opacity="0.4" fill="#F9C95C" points="166.276 216 166.276 240 221.704 208 221.704 184"></polygon>
            <polygon id="Path" fill="#FFFFFF" points="173.204 220 173.204 228 180.132 224 180.132 216"></polygon>
            <line x1="187.06" y1="212" x2="193.992" y2="208" id="Path" fill-opacity="0" fill="#000000"></line>
            <line x1="200.92" y1="204" x2="214.776" y2="196" id="Path" fill-opacity="0" fill="#000000"></line>
            <line x1="187.06" y1="220" x2="214.776" y2="204" id="Path" fill-opacity="0" fill="#000000"></line>
            <polyline id="Path" fill-opacity="0" fill="#000000" points="228.632 148 297.912 188 367.196 148"></polyline>
            <polygon id="Path" fill-opacity="0.4" fill="#F9C95C" points="103.924 108 159.348 140 214.776 108 159.348 76"></polygon>
            <polyline id="Path" fill-opacity="0" fill="#000000" points="159.348 348 228.632 388 367.196 308"></polyline>
            <polygon id="Path" fill-opacity="0" fill="#000000" points="159.348 308 297.912 228 367.196 268 228.632 348"></polygon>
            <polygon id="Path" fill-opacity="0" fill="#000000" points="173.204 68 228.632 36 353.34 108 297.912 140"></polygon>
            <line x1="193.992" y1="80" x2="249.416" y2="48" id="Path" fill-opacity="0" fill="#000000"></line>
            <line x1="214.776" y1="92" x2="270.2" y2="60" id="Path"></line>
            <line x1="235.56" y1="104" x2="290.984" y2="72" id="Path"></line>
            <line x1="256.344" y1="116" x2="311.768" y2="84" id="Path"></line>
            <line x1="277.128" y1="128" x2="332.556" y2="96" id="Path"></line>
            <polygon id="Path" points="187.06 68 193.992 72 221.704 56 214.776 52"></polygon>
            <polygon id="Path" fill-opacity="0" fill="#000000" points="221.704 48 228.632 52 235.56 48 228.632 44"></polygon>
            <line x1="270.2" y1="116" x2="304.84" y2="96" id="Path" fill-opacity="0" fill="#000000"></line>
            <line x1="277.128" y1="120" x2="318.696" y2="96" id="Path" fill-opacity="0" fill="#000000"></line>
            <polygon id="Path" fill-opacity="0" fill="#000000" points="270.2 60 270.2 36 325.628 4 325.628 28"></polygon>
            <polygon id="Path" fill-opacity="0.4" fill="#F9C95C" points="311.768 84 311.768 60 367.196 28 367.196 52"></polygon>
            <polygon id="Path" fill-opacity="0" fill="#000000" points="353.34 108 353.34 84 408.764 52 408.764 76"></polygon>
            <line x1="277.128" y1="40" x2="311.768" y2="20" id="Path" fill-opacity="0" fill="#000000"></line>
            <line x1="318.696" y1="64" x2="353.34" y2="44" id="Path" fill-opacity="0" fill="#000000"></line>
            <line x1="360.268" y1="88" x2="394.908" y2="68" id="Path" fill-opacity="0" fill="#000000"></line>
            <line x1="277.128" y1="48" x2="318.696" y2="24" id="Path" fill-opacity="0" fill="#000000"></line>
            <line x1="318.696" y1="72" x2="360.268" y2="48" id="Path" fill-opacity="0" fill="#000000"></line>
            <line x1="360.268" y1="96" x2="401.836" y2="72" id="Path" fill-opacity="0" fill="#000000"></line>
            <line x1="228.632" y1="92" x2="270.2" y2="68" id="Path" fill-opacity="0" fill="#000000"></line>
            <line x1="235.56" y1="96" x2="263.272" y2="80" id="Path" fill-opacity="0" fill="#000000"></line>
            <polyline id="Path" fill-opacity="0" fill="#000000" points="249.416 48 249.416 56 200.92 84"></polyline>
            <line x1="249.416" y1="56" x2="263.272" y2="64" id="Path" fill-opacity="0" fill="#000000"></line>
            <polyline id="Path" fill-opacity="0.4" fill="#F9C95C" points="325.628 4 318.696 0 263.272 32 270.2 36"></polyline>
            <polyline id="Path" fill-opacity="0" fill="#000000" points="367.196 28 360.268 24 304.84 56 311.768 60"></polyline>
            <polyline id="Path" fill-opacity="0" fill="#000000" points="408.764 52 401.836 48 346.412 80 353.34 84"></polyline>
            <line x1="263.272" y1="32" x2="263.272" y2="56" id="Path" fill-opacity="0" fill="#000000"></line>
            <line x1="304.84" y1="56" x2="304.84" y2="80" id="Path" fill-opacity="0" fill="#000000"></line>
            <polyline id="Path" fill-opacity="0" fill="#000000" points="290.984 72 290.984 80 242.488 108"></polyline>
            <line x1="290.984" y1="80" x2="304.84" y2="88" id="Path" fill-opacity="0" fill="#000000"></line>
            <polygon id="Path" fill-opacity="0" fill="#000000" points="166.276 248 166.276 272 221.704 240 221.704 216"></polygon>
            <polygon id="Path" fill-opacity="0" fill="#000000" points="173.204 252 173.204 260 180.132 256 180.132 248"></polygon>
            <line x1="187.06" y1="244" x2="207.848" y2="232" id="Path" fill-opacity="0" fill="#000000"></line>
            <line x1="187.06" y1="252" x2="200.92" y2="244" id="Path" fill-opacity="0" fill="#000000"></line>
            <line x1="207.848" y1="240" x2="214.776" y2="236" id="Path" fill-opacity="0" fill="#000000"></line>
            <line x1="346.412" y1="80" x2="346.412" y2="104" id="Path" fill-opacity="0" fill="#000000"></line>
            <polygon id="Path" fill-opacity="0" fill="#000000" points="297.912 236 353.34 268 228.632 340 173.204 308"></polygon>
            <polygon id="Path" fill-opacity="0" fill="#000000" points="166.276 280 166.276 304 221.704 272 221.704 248"></polygon>
            <polygon id="Path" fill-opacity="0" fill="#000000" points="173.204 284 173.204 292 180.132 288 180.132 280"></polygon>
            <line x1="187.06" y1="276" x2="214.776" y2="260" id="Path" fill-opacity="0" fill="#000000"></line>
            <line x1="187.06" y1="284" x2="207.848" y2="272" id="Path" fill-opacity="0" fill="#000000"></line>
            <line x1="284.056" y1="244" x2="339.484" y2="276" id="Path" fill-opacity="0" fill="#000000"></line>
            <line x1="311.768" y1="244" x2="297.912" y2="252" id="Path" fill-opacity="0" fill="#000000"></line>
            <line x1="367.196" y1="268" x2="367.196" y2="308" id="Path" fill-opacity="0" fill="#000000"></line>
            <line x1="367.196" y1="108" x2="367.196" y2="132" id="Path" fill-opacity="0" fill="#000000"></line>
            <polyline id="Path" fill-opacity="0" fill="#000000" points="90.068 108 228.632 28 367.196 108"></polyline>
            <polyline id="Path" fill-opacity="0" fill="#000000" points="159.348 356 228.632 396 346.412 328"></polyline>
            <polyline id="Path" fill-opacity="0" fill="#000000" points="159.348 388 228.632 428 325.628 372"></polyline>
            <polyline id="Path" fill-opacity="0" fill="#000000" points="159.348 372 228.632 412 241.48 404.58 394.908 316"></polyline>
            <polyline id="Path" fill-opacity="0" fill="#000000" points="228.632 156 297.912 196 387.98 144"></polyline>
            <polyline id="Path" fill-opacity="0" fill="#000000" points="228.632 172 297.912 212 353.34 180"></polyline>
            <polyline id="Path" fill-opacity="0" fill="#000000" points="228.632 188 297.912 228 346.412 200"></polyline>
            <polygon id="Path" fill-opacity="0.4" fill="#F9C95C" points="284.056 252 277.128 256 304.84 272 311.768 268"></polygon>
            <polygon id="Path" fill-opacity="0" fill="#000000" points="270.2 260 311.768 284 304.84 288 263.272 264"></polygon>
            <polygon id="Path" fill-opacity="0.4" fill="#F9C95C" points="256.344 268 270.2 276 263.272 280 249.416 272"></polygon>
            <polygon id="Path" fill-opacity="0" fill="#000000" points="242.488 276 277.128 296 270.2 300 235.56 280"></polygon>
            <polygon id="Path" fill-opacity="0" fill="#000000" points="228.632 284 270.2 308 263.272 312 221.704 288"></polygon>
            <polygon id="Path" fill-opacity="0.4" fill="#F9C95C" points="214.776 292 235.56 304 228.632 308 207.848 296"></polygon>
            <polygon id="Path" fill-opacity="0" fill="#000000" points="200.92 300 235.56 320 228.632 324 193.992 304"></polygon>
            <line x1="318.696" y1="272" x2="325.628" y2="276" id="Path"></line>
            <line x1="311.768" y1="276" x2="318.696" y2="280" id="Path"></line>
            <line x1="277.128" y1="280" x2="297.912" y2="292" id="Path"></line>
            <line x1="270.2" y1="284" x2="277.128" y2="288" id="Path"></line>
            <line x1="242.488" y1="308" x2="249.416" y2="312" id="Path"></line>
            <line x1="235.56" y1="312" x2="249.416" y2="320" id="Path"></line>
            <polygon id="Path" fill-opacity="0.4" fill="#F9C95C" points="297.912 148 297.912 188 367.196 148 367.196 108"></polygon>
            <line x1="228.632" y1="428" x2="228.632" y2="388" id="Path"></line>
            <line x1="20.784" y1="228" x2="124.708" y2="168" id="Path"></line>
            <line x1="6.81410484e-12" y1="256" x2="110.852" y2="192" id="Path"></line>
            <line x1="48.496" y1="244" x2="138.564" y2="192" id="Path"></line>
            <line x1="27.712" y1="288" x2="110.852" y2="240" id="Path"></line>
            <line x1="48.496" y1="260" x2="124.708" y2="216" id="Path"></line>
        </g>
    </g>
</svg>